<?xml version="1.0" encoding="utf-8"?>
<!-- Generator: Adobe Illustrator 16.0.3, SVG Export Plug-In . SVG Version: 6.00 Build 0)  -->
<!DOCTYPE svg PUBLIC "-//W3C//DTD SVG 1.1//EN" "http://www.w3.org/Graphics/SVG/1.1/DTD/svg11.dtd">
<svg version="1.1" id="Ebene_1" xmlns="http://www.w3.org/2000/svg" xmlns:xlink="http://www.w3.org/1999/xlink" x="0px" y="0px"
	 width="224px" height="61.2px" viewBox="0 0 224 61.2" style="enable-background:new 0 0 224 61.2;" xml:space="preserve">
<style type="text/css">
<![CDATA[
	.st0{fill:#005DA8;}
]]>
</style>
<g>
	<path class="st0" d="M224,0v61.2H0V0H224L224,0z M222,2H2v57.2H222V2L222,2z"/>
	<path class="st0" d="M22.4,14.8c0,0,0,12.1,0,12l10.9-12h8.9c0,0.1-13,14.5-12.9,14.5l13.5,15.4l-8.8,0L22.4,32.6l0,12.1h-7.2V14.8
		H22.4z"/>
	<polygon class="st0" points="136.3,26.8 136.3,14.8 143.5,14.8 143.5,44.7 136.3,44.7 136.3,32.8 122.2,32.8 122.2,44.7 115,44.7 
		115,14.8 122.2,14.8 122.2,26.8 	"/>
	<polygon class="st0" points="171,33.5 171.1,14.8 178.3,14.8 178.3,44.7 171.1,44.7 157.2,26.7 157.2,44.7 149.9,44.7 149.9,14.8 
		157.2,14.8 171,33.5 	"/>
	<polygon class="st0" points="191.9,20.8 191.9,26.8 208.8,26.8 208.8,32.8 191.9,32.8 191.9,38.7 208.8,38.7 208.8,44.7 
		184.7,44.7 184.7,14.8 208.8,14.8 208.8,20.8 	"/>
	<path class="st0" d="M68.6,33.7c0.1,0,5-0.1,4.9-4.7c0,0,0-9.5,0-9.5c-0.2-2.6-2.5-4.4-4.8-4.7l-22.4,0v29.9l7.2,0l0-10.6l6.8,0
		l6.3,10.6H74C74,44.8,68.6,33.7,68.6,33.7L68.6,33.7z M66.8,24.2c0,3.1-0.6,3.6-0.9,3.7c0,0-12.4,0-12.4,0v-7l12.4,0
		C65.9,20.9,66.8,20.3,66.8,24.2L66.8,24.2z"/>
</g>
<path class="st0" d="M104.1,14.8H84.4c-2.5,0-4.5,2-4.5,4.5v20.9c0,2.5,2,4.5,4.5,4.5h19.7c2.5,0,4.5-2,4.5-4.5V19.3
	C108.6,16.8,106.6,14.8,104.1,14.8z M101.4,38.7H87.1V20.8h14.2V38.7z"/>
</svg>
