<svg xmlns="http://www.w3.org/2000/svg" viewBox="0 0 9507.5 2834.65"><defs><style>.a{fill:#003761;}.b{fill:#fff;}.c{fill:#95c11f;}</style></defs><polygon class="a" points="9507.5 0 9507.5 2834.65 2834.64 2834.65 2362.14 2561.9 2362.14 2016.37 1887.2 1741.78 1889.82 1198.19 1417.29 925.52 0 1743.57 0 0 9507.5 0"/><polygon class="b" points="2834.64 2834.65 0 2834.64 0 1743.57 1417.29 925.52 1889.82 1198.19 944.77 1743.7 944.87 1743.75 944.86 1743.76 1412.46 2013.56 1417.29 2016.35 1887.2 1741.78 2362.14 2016.37 1889.36 2288.98 2178.98 2456.16 2362.14 2561.9 2834.64 2834.65"/><polygon class="c" points="1889.82 1198.19 1887.2 1741.78 1417.29 2016.35 1412.46 2013.56 944.86 1743.76 944.87 1743.75 1889.82 1198.19"/><polygon class="c" points="2362.14 2016.37 2362.14 2561.95 2178.98 2456.16 1889.82 2289.16 2362.14 2016.37"/><path class="c" d="M3264.1,903.119V336.226h380.844V429.25h-274.3V572.365H3605.98V664.6H3370.636V903.119Z"/><path class="c" d="M3842.67,912.66q-80.316,0-135.164-43.332t-54.86-122.84V666.98q0-82.683,53.668-130.394t133.176-47.705q72.341,0,124.033,41.742,51.673,41.742,51.68,118.07v78.713H3753.621v22.262q0,37.382,27.033,59.631,27.019,22.269,66.787,22.263,23.853,0,47.705-14.312a132.274,132.274,0,0,0,40.549-38.164l74.738,42.935Q3965.113,912.66,3842.67,912.66Zm-89.049-252.836H3918.2V648.693q0-38.946-22.66-58.439-22.659-19.473-56.053-19.479-34.995,0-60.426,20.672-25.455,20.685-25.443,62.811Z"/><path class="c" d="M4057.654,903.119V496.037h93.82v49.3h1.59q42.934-57.246,115.287-57.246,76.328,0,116.082,60.427h.8q46.9-60.414,125.623-60.427,61.215,0,101.771,36.177T4653.171,631.2V903.119h-97V666.185q0-93.025-73.943-93.025-38.965,0-58.438,26.238-19.492,26.238-19.48,69.172V903.119h-97V667.775q0-94.608-73.942-94.615-30.227,0-54.464,22.262-24.263,22.269-24.25,68.377v239.32Z"/><path class="c" d="M4827.53,911.07q-63.618,0-102.565-33-38.966-32.983-38.959-90.242,0-56.443,44.127-91.037t106.143-34.586h108.131V624.84q0-61.215-77.918-61.221-32.61,0-52.873,10.734t-20.274,29.815V618.48h-87.459V607.349q0-61.215,47.7-90.242t113.7-29.021q76.326,0,125.225,30.214t48.9,99.385V815.66q0,74.744,7.156,87.459h-96.2q-.8-3.969-2.385-20.672l-1.59-16.7h-1.591q-25.454,27.039-51.68,36.177T4827.53,911.07Zm26.238-76.328q53.257,0,71.955-21.467,18.672-21.468,18.684-60.426V732.972H4849q-68.389,0-68.377,50.09Q4780.621,834.754,4853.768,834.742Z"/><path class="c" d="M5192.858,908.685q-33.393,0-55.257-11.926t-30.214-33q-8.347-21.057-10.733-35.382a211.164,211.164,0,0,1-2.385-34.188V336.226h97V793.4q0,33.393,34.983,33.393,9.541,0,44.524-3.18v73.943Q5229.425,908.678,5192.858,908.685Z"/><path class="c" d="M5475.986,912.66q-80.316,0-135.164-43.332t-54.861-122.84V666.98q0-82.683,53.668-130.394t133.177-47.705q72.339,0,124.032,41.742,51.675,41.742,51.681,118.07v78.713H5386.937v22.262q0,37.382,27.033,59.631,27.019,22.269,66.786,22.263,23.853,0,47.7-14.312a132.263,132.263,0,0,0,40.549-38.164l74.738,42.935Q5598.429,912.66,5475.986,912.66Zm-89.049-252.836h164.582V648.693q0-38.946-22.66-58.439-22.66-19.473-56.053-19.479-35,0-60.427,20.672-25.455,20.685-25.442,62.811Z"/><path class="c" d="M5843.308,903.119,6054,335.431h97l209.107,567.688H6248L6206.66,782.267H5990.4l-42.934,120.852Zm176.508-211.492h156.631l-77.123-227.393h-1.59Z"/><path class="c" d="M6549.974,912.66q-79.515,0-134.766-44.127-55.27-44.127-55.258-122.045V666.98q0-82.683,53.668-130.394t133.176-47.705q72.341,0,125.225,41.742,52.868,41.742,52.873,118.07v7.951h-94.615v-7.951q0-38.946-25.045-58.439-25.044-19.473-58.438-19.479-35,0-60.426,20.672-25.457,20.685-25.443,62.811v95.41q0,38.164,24.648,60.029t64.4,21.865q33.393,0,56.849-19.48t23.454-58.438v-3.976h94.615v3.976q0,76.327-51.283,117.672T6549.974,912.66Z"/><path class="c" d="M6885.01,911.07q-63.618,0-102.565-33-38.966-32.983-38.959-90.242,0-56.443,44.127-91.037t106.143-34.586h108.131V624.84q0-61.215-77.918-61.221-32.61,0-52.873,10.734t-20.274,29.815V618.48h-87.459V607.349q0-61.215,47.7-90.242t113.7-29.021q76.326,0,125.225,30.214t48.9,99.385V815.66q0,74.744,7.156,87.459h-96.2q-.8-3.969-2.385-20.672l-1.59-16.7h-1.591q-25.454,27.039-51.68,36.177T6885.01,911.07Zm26.238-76.328q53.257,0,71.955-21.467,18.672-21.468,18.684-60.426V732.972h-95.409q-68.39,0-68.377,50.09Q6838.1,834.754,6911.248,834.742Z"/><path class="c" d="M7299.952,912.66q-69.974,0-115.287-42.537t-45.319-118.069V653.463q0-79.5,47.7-122.442t120.058-42.935q65.184,0,103.361,50.091h2.385V336.226h97V903.119h-94.615V857.8h-.795q-16.7,23.07-51.283,38.96T7299.952,912.66Zm26.238-83.483q34.977,0,60.824-19.878,25.827-19.863,25.84-60.426V648.693q0-35.779-25.443-57.246t-64.4-21.467q-34.995,0-60.028,19.877t-25.045,60.426V751.258q0,35.779,24.647,56.849T7326.19,829.177Z"/><path class="c" d="M7743.123,912.66q-80.316,0-135.165-43.332t-54.86-122.84V666.98q0-82.683,53.668-130.394t133.176-47.705q72.34,0,124.033,41.742,51.673,41.742,51.681,118.07v78.713H7654.074v22.262q0,37.382,27.032,59.631,27.021,22.269,66.787,22.263,23.851,0,47.7-14.312a132.263,132.263,0,0,0,40.549-38.164l74.738,42.935Q7865.564,912.66,7743.123,912.66Zm-89.049-252.836h164.582V648.693q0-38.946-22.66-58.439-22.66-19.473-56.054-19.479-34.995,0-60.426,20.672-25.455,20.685-25.442,62.811Z"/><path class="c" d="M7958.107,903.119V496.037h93.819v49.3h1.59q42.935-57.246,115.287-57.246,76.329,0,116.082,60.427h.8q46.905-60.414,125.623-60.427,61.216,0,101.771,36.177T8553.623,631.2V903.119h-97V666.185q0-93.025-73.943-93.025-38.964,0-58.438,26.238-19.491,26.238-19.48,69.172V903.119h-97V667.775q0-94.608-73.942-94.615-30.226,0-54.463,22.262-24.263,22.269-24.25,68.377v239.32Z"/><path class="c" d="M8610.39,434.021V330.66h97V434.021Zm0,469.1V496.037h97V903.119Z"/><path class="c" d="M8942.1,912.66q-79.515,0-134.766-44.127-55.271-44.127-55.258-122.045V666.98q0-82.683,53.668-130.394t133.176-47.705q72.341,0,125.225,41.742,52.868,41.742,52.873,118.07v7.951H9022.4v-7.951q0-38.946-25.046-58.439-25.044-19.473-58.438-19.479-35,0-60.426,20.672-25.455,20.685-25.443,62.811v95.41q0,38.164,24.648,60.029t64.4,21.865q33.395,0,56.849-19.48t23.455-58.438v-3.976h94.614v3.976q0,76.327-51.282,117.672T8942.1,912.66Z"/><path class="c" d="M3264.1,1694.119V1127.226h393.566v93.024h-287.82V1358.6h255.221v93.024H3369.841V1601.1h291v93.024Z"/><path class="c" d="M3711.17,1694.119V1287.037h94.615v50.09h1.59q40.548-58.029,115.287-58.041,68.37,0,105.348,40.55t36.971,113.7v260.787h-97V1457.98q0-93.809-75.533-93.82-84.285,0-84.278,101.771v228.188Z"/><path class="c" d="M4259.139,1700.479q-50.09,0-81.893-25.442t-31.8-77.123V1364.16h-54.86v-77.123h54.86V1163.8h97v123.237H4330.7v77.123h-88.255v210.7q0,38.964,38.164,38.959a303.526,303.526,0,0,0,50.091-3.976v82.689Q4299.688,1700.467,4259.139,1700.479Z"/><path class="c" d="M4360.421,1694.119V1287.037h94.615v67.582h1.59q17.48-31.791,56.849-53.668,39.355-21.858,75.93-21.865,22.25,0,32.6,2.386v89.049q-12.727-2.385-36.574-2.385-56.463,0-92.229,31.4t-35.779,86.267v208.311Z"/><path class="c" d="M4829.518,1703.66q-80.316,0-135.164-43.332t-54.861-122.84V1457.98q0-82.683,53.668-130.394t133.176-47.7q72.34,0,124.033,41.742,51.674,41.742,51.68,118.07v78.713H4740.468v22.262q0,37.382,27.033,59.631,27.021,22.269,66.787,22.263,23.853,0,47.705-14.312a132.263,132.263,0,0,0,40.549-38.164l74.738,42.935Q4951.961,1703.66,4829.518,1703.66Zm-89.05-252.836H4905.05v-11.131q0-38.946-22.659-58.439-22.66-19.473-56.054-19.479-35,0-60.426,20.672-25.455,20.685-25.443,62.812Z"/><path class="c" d="M5049.67,1847.57V1287.037h94.615v46.91h.8q46.1-54.861,114.491-54.861,69.956,0,115.287,42.537t45.32,118.07v98.59q0,79.515-47.7,122.443t-120.057,42.934q-65.2,0-103.361-50.09h-2.385v194Zm186.844-225.8q34.977,0,60.028-19.877t25.046-60.427V1440.488q0-35.778-24.648-56.848t-63.607-21.07q-34.194,0-60.426,22.262t-26.237,63.607v94.615q0,35.778,25.442,57.245T5236.514,1621.767Z"/><path class="c" d="M5467.477,1694.119V1287.037h94.615v67.582h1.59q17.478-31.791,56.848-53.668,39.357-21.858,75.93-21.865,22.251,0,32.6,2.386v89.049q-12.728-2.385-36.574-2.385-56.463,0-92.23,31.4t-35.778,86.267v208.311Z"/><path class="c" d="M5936.574,1703.66q-80.316,0-135.164-43.332t-54.861-122.84V1457.98q0-82.683,53.668-130.394t133.177-47.7q72.339,0,124.032,41.742,51.673,41.742,51.68,118.07v78.713H5847.524v22.262q0,37.382,27.034,59.631,27.019,22.269,66.786,22.263,23.853,0,47.7-14.312a132.263,132.263,0,0,0,40.549-38.164l74.738,42.935Q6059.017,1703.66,5936.574,1703.66Zm-89.05-252.836h164.582v-11.131q0-38.946-22.659-58.439-22.66-19.473-56.053-19.479-35,0-60.427,20.672-25.455,20.685-25.443,62.812Z"/><path class="c" d="M6156.726,1694.119V1287.037h94.615v50.09h1.59q40.548-58.029,115.287-58.041,68.37,0,105.348,40.55t36.972,113.7v260.787h-97V1457.98q0-93.809-75.534-93.82-84.285,0-84.278,101.771v228.188Z"/><path class="c" d="M6745.324,1703.66q-80.316,0-135.164-43.332t-54.861-122.84V1457.98q0-82.683,53.668-130.394t133.177-47.7q72.339,0,124.032,41.742,51.673,41.742,51.68,118.07v78.713H6656.274v22.262q0,37.382,27.034,59.631,27.019,22.269,66.786,22.263,23.853,0,47.7-14.312a132.263,132.263,0,0,0,40.549-38.164l74.738,42.935Q6867.767,1703.66,6745.324,1703.66Zm-89.05-252.836h164.582v-11.131q0-38.946-22.659-58.439-22.66-19.473-56.053-19.479-35,0-60.427,20.672-25.455,20.685-25.443,62.812Z"/><path class="c" d="M7103.979,1702.07q-68.39,0-105.746-41.344-37.382-41.332-37.368-113.7V1287.037h97v236.14q0,93.825,76.327,93.819,83.484,0,83.484-102.565V1287.037h97v407.082h-93.82v-50.09h-2.385Q7177.922,1702.076,7103.979,1702.07Z"/><path class="c" d="M7372.786,1694.119V1287.037H7467.4v67.582h1.59q17.48-31.791,56.848-53.668,39.357-21.858,75.931-21.865,22.249,0,32.6,2.386v89.049q-12.731-2.385-36.575-2.385-56.463,0-92.23,31.4t-35.778,86.267v208.311Z"/><path class="c" d="M7825.107,1702.865q-128.8,0-182.074-78.713l68.377-51.68q40.55,53.275,112.106,53.27,33.395,0,56.849-12.324t23.455-37.766q0-22.25-15.9-31.406-15.913-9.13-60.426-17.094l-53.271-9.541q-111.324-19.865-111.311-105.746,0-61.215,46.91-97.4t114.492-36.177q112.889,0,159.812,66.787l-69.968,47.7q-34.194-39.747-90.64-39.754-30.225,0-48.1,11.529t-17.89,33.791q0,17.5,16.3,25.045,16.287,7.566,51.283,13.914a90.681,90.681,0,0,1,9.541,1.59l61.221,11.926q108.92,21.468,108.926,113.7,0,65.2-54.861,101.77T7825.107,1702.865Z"/><path class="c" d="M3374.611,2493.07q-63.618,0-102.565-33-38.965-32.983-38.959-90.242,0-56.443,44.127-91.037t106.143-34.586h108.132v-37.368q0-61.216-77.919-61.222-32.61,0-52.872,10.734t-20.275,29.815v14.311h-87.459v-11.13q0-61.215,47.7-90.242t113.7-29.021q76.329,0,125.226,30.214t48.9,99.385V2397.66q0,74.744,7.156,87.459h-96.2q-.8-3.969-2.385-20.672l-1.59-16.7h-1.59q-25.455,27.039-51.681,36.177T3374.611,2493.07Zm26.238-76.328q53.257,0,71.955-21.467,18.672-21.468,18.685-60.426v-19.877h-95.41q-68.39,0-68.377,50.09Q3327.7,2416.754,3400.849,2416.742Z"/><path class="c" d="M3780.409,2491.479q-50.09,0-81.893-25.442t-31.8-77.123V2155.16h-54.86v-77.123h54.86V1954.8h97v123.237h88.255v77.123h-88.255v210.7q0,38.965,38.164,38.959a303.526,303.526,0,0,0,50.091-3.976v82.689Q3820.957,2491.467,3780.409,2491.479Z"/><path class="c" d="M4072.988,2485.119V1918.226H4297.2q83.484,0,137.947,46.91t54.463,131.188a184.407,184.407,0,0,1-28.623,99.783q-28.623,45.729-83.484,64.8l140.73,224.213H4402.947l-132.779-212.287h-91.434v212.287Zm105.746-301.336H4284.48q46.9,0,74.34-22.66t27.43-65.594q0-88.254-103.36-88.254H4178.734Z"/><path class="c" d="M4761.756,2493.865q-101.783,0-161.8-52.475-60.041-52.476-60.029-151.861v-371.3h105.746v358.582q0,55.662,28.623,88.651t87.459,33q116.076,0,116.082-121.647V1918.226h105.746v363.352q0,100.18-60.426,156.234T4761.756,2493.865Z"/><path class="c" d="M5049.645,2485.119V1918.226h243.294q83.484,0,129.2,36.971t45.717,109.324q0,82.7-80.3,120.057v.8q47.7,12.728,72.75,50.09,25.046,37.381,25.045,86.664,0,76.329-52.078,119.66t-126.815,43.332Zm105.745-333.934h124.828q39.748,0,62.016-19.082,22.251-19.083,22.263-54.066,0-69.955-89.049-69.967H5155.39Zm0,244.09h132.779q42.935,0,67.582-20.672t24.647-58.836q0-75.526-91.434-75.533H5155.39Z"/></svg>